<svg xmlns="http://www.w3.org/2000/svg" fill="none" viewBox="0 0 32 32"><defs><linearGradient id="bg" x1="0" x2="32" y1="0" y2="32" gradientUnits="userSpaceOnUse"><stop offset="0%" stop-color="#7c3aed"/><stop offset="50%" stop-color="#c026d3"/><stop offset="100%" stop-color="#0ea5e9"/></linearGradient></defs><rect width="32" height="32" fill="url(#bg)" rx="8"/><path stroke="#fff" stroke-linecap="round" stroke-width="2" d="M24 19.5V21.5C24 22.6046 23.1046 23.5 22 23.5H10C8.89543 23.5 8 22.6046 8 21.5V19.5"/><path fill="#fff" d="M7 15.5V16.5C7 18.1569 8.34315 19.5 10 19.5H22C23.6569 19.5 25 18.1569 25 16.5V15.5H7Z"/><path fill="#fff" d="M10 10.5H22C23.6569 10.5 25 11.8431 25 13.5V15.5H7V13.5C7 11.8431 8.34315 10.5 10 10.5Z"/><path fill="#fff" d="M16 5L17.2 8.5L21 9.5L17.2 10.5L16 14L14.8 10.5L11 9.5L14.8 8.5L16 5Z"/></svg>